<svg xmlns="http://www.w3.org/2000/svg" xmlns:xlink="http://www.w3.org/1999/xlink" width="17" height="17" viewBox="0 0 17 17"><defs><clipPath id="a"><rect width="17" height="17" transform="translate(-0.407)" fill="#fff"/></clipPath></defs><g transform="translate(0.407)" opacity="0.2" clip-path="url(#a)"><g transform="translate(-0.04)"><path d="M12.519,5.083a3.344,3.344,0,0,0-3.212,2.74.537.537,0,0,0,.8.549.849.849,0,0,1,.415-.149c.075,0,.089.024.1.045a.824.824,0,0,1-.119.726,8.463,8.463,0,0,1-.8,1.267c-.138-.388-.3-1.022-.378-1.342-.065-.261-.119-.578-.174-.913-.213-1.274-.478-2.859-1.814-2.859a1.594,1.594,0,0,0-.3.031C5.623,5.455,3.972,7.372,3.789,7.59a.537.537,0,0,0-.016.672l.4.52a.537.537,0,0,0,.757.1,2.276,2.276,0,0,1,.413-.253c.174.444.5,1.5.728,2.242A24.672,24.672,0,0,0,6.884,13.3a2.3,2.3,0,0,0,1.905,1.374,1.724,1.724,0,0,0,.939-.289c1.054-.68,4.194-3.356,4.777-6.626a2.329,2.329,0,0,0-.4-1.995A2.018,2.018,0,0,0,12.519,5.083Zm.93,2.486c-.52,2.916-3.575,5.443-4.3,5.913a.652.652,0,0,1-.358.119,1.282,1.282,0,0,1-.939-.77c-.142-.294-.467-1.348-.753-2.278A11.542,11.542,0,0,0,6.1,7.785a.806.806,0,0,0-.627-.278,1,1,0,0,0-.143.01A4.844,4.844,0,0,1,7.245,6.231a.51.51,0,0,1,.1-.011c.428,0,.625,1.18.755,1.962.06.357.115.7.192,1,.371,1.474.6,2.363,1.319,2.363.242,0,.745,0,1.844-2.042a1.822,1.822,0,0,0,.1-1.786,1.148,1.148,0,0,0-.847-.556,2.3,2.3,0,0,1,1.816-1.006.98.98,0,0,1,.765.3A1.362,1.362,0,0,1,13.45,7.568Z" transform="translate(-1.124 -1.56)"/><path d="M12.165,0h-7.7A4.473,4.473,0,0,0,0,4.468v7.7a4.473,4.473,0,0,0,4.468,4.468h7.7a4.472,4.472,0,0,0,4.468-4.467v-7.7A4.473,4.473,0,0,0,12.165,0ZM15.56,12.166a3.4,3.4,0,0,1-3.395,3.395h-7.7a3.4,3.4,0,0,1-3.395-3.395v-7.7A3.4,3.4,0,0,1,4.468,1.073h7.7A3.4,3.4,0,0,1,15.56,4.468Z"/></g></g></svg>