<svg xmlns="http://www.w3.org/2000/svg" xmlns:xlink="http://www.w3.org/1999/xlink" width="17" height="17" viewBox="0 0 17 17"><defs><clipPath id="a"><rect width="17" height="17" transform="translate(-0.029)" fill="#fff"/></clipPath></defs><g transform="translate(0.029)" opacity="0.2" clip-path="url(#a)"><g transform="translate(0.434)"><path d="M11.465,0H4.694A4.7,4.7,0,0,0,0,4.694v6.771a4.7,4.7,0,0,0,4.694,4.694h6.771a4.7,4.7,0,0,0,4.694-4.694V4.694A4.7,4.7,0,0,0,11.465,0ZM14.9,11.465A3.435,3.435,0,0,1,11.465,14.9H4.694a3.435,3.435,0,0,1-3.432-3.432V4.694A3.435,3.435,0,0,1,4.694,1.262h6.771A3.435,3.435,0,0,1,14.9,4.694Z"/><g transform="translate(3.724 3.724)"><path d="M9.887,5.531a4.355,4.355,0,1,0,4.355,4.355A4.36,4.36,0,0,0,9.887,5.531Zm0,7.448A3.093,3.093,0,1,1,12.98,9.887,3.1,3.1,0,0,1,9.887,12.98Z" transform="translate(-5.531 -5.531)"/></g><g transform="translate(11.867 3.03)"><circle cx="0.631" cy="0.631" r="0.631"/></g></g></g></svg>